<svg width="211" height="39" viewBox="0 0 211 39" fill="none" xmlns="http://www.w3.org/2000/svg">
<g id="crea" clipPath="url(#clip0_589_234)">
<path id="Vector" d="M188.147 25.6524C189.102 24.4577 189.582 23.0283 189.582 21.3664C189.582 19.2394 188.82 17.5263 187.296 16.2292C185.913 15.0644 183.668 14.4819 180.558 14.4819H176.395V37.9451H179.948V28.3405H180.588L187.311 37.9451H191.656L184.368 27.9458C185.932 27.6109 187.193 26.8471 188.15 25.6503L188.147 25.6524ZM179.945 25.2578V17.8122H181.21C184.483 17.8122 186.121 19.0133 186.121 21.4134C186.121 23.9756 184.438 25.2578 181.073 25.2578H179.945Z" fill="#373635"/>
<path id="Vector_2" d="M196.502 14.4346V17.7627H201.913V37.8999H205.466V17.7627H210.864V14.4346H196.502Z" fill="#373635"/>
<path id="Vector_3" d="M148.591 0.23877H135.336V13.6408H148.591V0.23877Z" fill="#373635"/>
<g id="Group">
<path id="Subtract" fillRule="evenodd" clipRule="evenodd" d="M152.246 17.2845V3.88037H166.58V18.5731V22.3234L163.058 14.482H161.677L150.775 37.8996H138.99V17.2845H152.246ZM154.678 37.8996H166.58V32.6857H157.069L154.678 37.8996ZM162.318 21.1021L158.58 29.2765H165.885L162.318 21.1021Z" fill="#373635"/>
</g>
<path id="Vector_4" d="M47.7479 13.9951C44.3532 13.9951 41.4466 15.1813 39.0258 17.5515C36.5964 19.9217 35.3828 22.7591 35.3828 26.0616C35.3828 29.8207 36.7141 32.8608 39.3768 35.1798C41.7955 37.2769 44.5245 38.3266 47.5638 38.3266C50.9992 38.3266 53.9315 37.1468 56.3609 34.7851C58.7795 32.4341 59.9889 29.5732 59.9889 26.1982C59.9889 22.8231 58.7838 19.9729 56.3759 17.5814C53.9765 15.1898 51.0998 13.9951 47.7458 13.9951H47.7479ZM53.8609 32.4597C52.1636 34.1622 50.0788 35.0134 47.6088 35.0134C45.3314 35.0134 43.3237 34.1771 41.5857 32.5067C39.837 30.8341 38.9637 28.7028 38.9637 26.1086C38.9637 23.5144 39.807 21.5602 41.4937 19.8769C43.1803 18.1745 45.2501 17.3232 47.6987 17.3232C50.1473 17.3232 52.2213 18.1745 53.8887 19.8769C55.5668 21.5687 56.4037 23.6658 56.4037 26.1683C56.4037 28.6708 55.554 30.7381 53.8566 32.4597H53.8609Z" fill="#373635"/>
<path id="Vector_5" d="M23.0438 17.323C25.2399 17.323 27.3632 18.1785 29.418 19.8916V15.6974C27.4467 14.5517 25.4026 13.98 23.2879 13.98C19.4159 13.98 16.2588 15.4136 13.8187 18.2809C11.8367 20.6213 10.8457 23.2859 10.8457 26.2748C10.8457 29.6072 12.0293 32.4553 14.3988 34.8148C16.7768 37.1551 19.6492 38.3242 23.0139 38.3242C25.2506 38.3242 27.3846 37.7525 29.418 36.6069V32.3358C28.8379 32.8222 28.2878 33.2382 27.7634 33.5817C27.239 33.9252 26.7339 34.2004 26.2459 34.4031C25.3726 34.8084 24.3088 35.0111 23.0588 35.0111C20.6402 35.0111 18.5961 34.1662 16.9287 32.4723C15.2614 30.7805 14.4287 28.7026 14.4287 26.2406C14.4287 23.7787 15.2614 21.641 16.9287 19.9194C18.5854 18.1871 20.6231 17.3209 23.0417 17.3209L23.0438 17.323Z" fill="#373635"/>
<path id="Vector_6" d="M3.55307 14.4346H0V37.8977H3.55307V14.4346Z" fill="#373635"/>
<path id="Vector_7" d="M110.258 18.2811C108.276 20.6214 107.285 23.2861 107.285 26.275C107.285 29.6073 108.469 32.4554 110.838 34.815C113.216 37.1553 116.089 38.3244 119.453 38.3244C121.69 38.3244 123.824 37.7527 125.857 36.607V32.336C125.277 32.8224 124.727 33.2384 124.203 33.5819C123.678 33.9253 123.173 34.2006 122.685 34.4032C121.812 34.8086 120.748 35.0113 119.498 35.0113C117.08 35.0113 115.036 34.1664 113.368 32.4725C111.701 30.7807 110.868 28.7028 110.868 26.2408C110.868 23.7789 111.701 21.6412 113.368 19.9196C115.025 18.1872 117.063 17.3211 119.481 17.3211C121.677 17.3211 123.8 18.1766 125.855 19.8897V15.6954C123.884 14.5498 121.84 13.978 119.725 13.978C115.853 13.978 112.696 15.4117 110.256 18.279L110.258 18.2811Z" fill="#373635"/>
<path id="Vector_8" d="M87.9867 14.4346H84.4336V30.7423L68.798 14.4346H67.2676V37.8999H70.8185V21.4705L86.6125 37.8999H87.9867V14.4346Z" fill="#373635"/>
<path id="Vector_9" d="M99.9925 14.4346H96.4395V37.8977H99.9925V14.4346Z" fill="#373635"/>
</g>
<defs>
<clipPath id="clip0_589_234">
<rect width="210.864" height="38.0855" fill="white" transform="translate(0 0.23877)"/>
</clipPath>
</defs>
</svg>
